<?xml version="1.0" encoding="UTF-8" standalone="no"?>
<!DOCTYPE svg PUBLIC "-//W3C//DTD SVG 1.1//EN"
 "http://www.w3.org/Graphics/SVG/1.1/DTD/svg11.dtd">
<!-- Generated by graphviz version 2.28.0 (20111029.1739)
 -->
<!-- Title: G Pages: 1 -->
<svg width="560pt" height="186pt"
 viewBox="0.00 0.00 560.00 186.00" xmlns="http://www.w3.org/2000/svg" xmlns:xlink="http://www.w3.org/1999/xlink">
<g id="graph1" class="graph" transform="scale(1 1) rotate(0) translate(4 182)">
<title>G</title>
<polygon fill="white" stroke="white" points="-4,5 -4,-182 557,-182 557,5 -4,5"/>
<g id="graph2" class="cluster"><title>cluster_Wa72</title>
<polyline fill="none" stroke="gray" points="406,-8 532,-8 "/>
<path fill="none" stroke="gray" d="M532,-8C538,-8 544,-14 544,-20"/>
<polyline fill="none" stroke="gray" points="544,-20 544,-158 "/>
<path fill="none" stroke="gray" d="M544,-158C544,-164 538,-170 532,-170"/>
<polyline fill="none" stroke="gray" points="532,-170 406,-170 "/>
<path fill="none" stroke="gray" d="M406,-170C400,-170 394,-164 394,-158"/>
<polyline fill="none" stroke="gray" points="394,-158 394,-20 "/>
<path fill="none" stroke="gray" d="M394,-20C394,-14 400,-8 406,-8"/>
<text text-anchor="middle" x="469" y="-157.2" font-family="Times,serif" font-size="11.00" fill="gray">Wa72</text>
</g>
<g id="graph3" class="cluster"><title>cluster_Wa72\HtmlPageDom</title>
<polyline fill="none" stroke="gray" points="414,-16 524,-16 "/>
<path fill="none" stroke="gray" d="M524,-16C530,-16 536,-22 536,-28"/>
<polyline fill="none" stroke="gray" points="536,-28 536,-130 "/>
<path fill="none" stroke="gray" d="M536,-130C536,-136 530,-142 524,-142"/>
<polyline fill="none" stroke="gray" points="524,-142 414,-142 "/>
<path fill="none" stroke="gray" d="M414,-142C408,-142 402,-136 402,-130"/>
<polyline fill="none" stroke="gray" points="402,-130 402,-28 "/>
<path fill="none" stroke="gray" d="M402,-28C402,-22 408,-16 414,-16"/>
<text text-anchor="middle" x="469" y="-129.2" font-family="Times,serif" font-size="11.00" fill="gray">HtmlPageDom</text>
</g>
<!-- \\Wa72\\HtmlPageDom\\HtmlPage -->
<g id="node3" class="node"><title>\\Wa72\\HtmlPageDom\\HtmlPage</title>
<a xlink:href="HtmlPage.html" xlink:title="HtmlPage" target="_parent">
<polygon fill="none" stroke="black" points="504.5,-114 433.5,-114 433.5,-78 504.5,-78 504.5,-114"/>
<text text-anchor="middle" x="469" y="-93.2" font-family="Courier,monospace" font-size="11.00">HtmlPage</text>
</a>
</g>
<!-- \\Wa72\\HtmlPageDom\\HtmlPageCrawler -->
<g id="node4" class="node"><title>\\Wa72\\HtmlPageDom\\HtmlPageCrawler</title>
<a xlink:href="HtmlPageCrawler.html" xlink:title="HtmlPageCrawler" target="_parent">
<polygon fill="none" stroke="black" points="528,-60 410,-60 410,-24 528,-24 528,-60"/>
<text text-anchor="middle" x="469" y="-39.2" font-family="Courier,monospace" font-size="11.00">HtmlPageCrawler</text>
</a>
</g>
<!-- \\Symfony\\Component\\DomCrawler\\Crawler -->
<g id="node6" class="node"><title>\\Symfony\\Component\\DomCrawler\\Crawler</title>
<ellipse fill="none" stroke="black" cx="169" cy="-42" rx="168.97" ry="18"/>
<text text-anchor="middle" x="169" y="-38.3" font-family="Times,serif" font-size="14.00" fill="gray">\Symfony\Component\DomCrawler\Crawler</text>
</g>
<!-- \\Wa72\\HtmlPageDom\\HtmlPageCrawler&#45;&gt;\\Symfony\\Component\\DomCrawler\\Crawler -->
<g id="edge4" class="edge"><title>\\Wa72\\HtmlPageDom\\HtmlPageCrawler&#45;&gt;\\Symfony\\Component\\DomCrawler\\Crawler</title>
<path fill="none" stroke="black" d="M409.835,-42C391.621,-42 370.479,-42 348.442,-42"/>
<polygon fill="none" stroke="black" points="348.261,-38.5001 338.261,-42 348.261,-45.5001 348.261,-38.5001"/>
</g>
</g>
</svg>
